<svg width="148" height="104" viewBox="0 0 148 104" fill="none" xmlns="http://www.w3.org/2000/svg">
<rect width="148" height="104" fill="#404051"/>
<g clip-path="url(#clip0)">
<path d="M55.4056 55.7333C54.8651 55.0471 54.0272 54.7177 52.9191 54.7177C51.6218 54.7177 50.5947 55.2118 49.865 56.2L49.7569 54.9373H46.6216V65.8078H49.946V58.1216C50.2704 57.6 50.7569 57.3255 51.4055 57.3255C51.9731 57.3255 52.3785 57.4627 52.5948 57.7098C52.811 57.9569 52.9191 58.3686 52.9191 58.9176V65.7804H56.2705V58.8078C56.2435 57.4353 55.9732 56.4196 55.4056 55.7333Z" fill="#7F7E96"/>
<path d="M62.1085 66C60.4598 66 59.1355 65.5059 58.1354 64.5176C57.1084 63.5294 56.6219 62.2118 56.6219 60.6196V60.3451C56.6219 59.2471 56.8111 58.2588 57.2165 57.4078C57.6219 56.5569 58.2165 55.898 59.0003 55.4314C59.7841 54.9647 60.7031 54.7177 61.7571 54.7177C63.2707 54.7177 64.4599 55.1843 65.3248 56.1451C66.1897 57.0784 66.6221 58.3961 66.6221 60.098V61.4157H60.0003C60.1085 62.0196 60.3787 62.5137 60.7842 62.8431C61.1896 63.2 61.7031 63.3647 62.3518 63.3647C63.4058 63.3647 64.2437 62.9804 64.8113 62.2392L66.3519 64.0784C65.9464 64.6549 65.3518 65.1216 64.568 65.4784C63.8113 65.8353 63.0004 66 62.1085 66ZM61.7301 57.3529C60.7571 57.3529 60.1625 58.0118 60.0003 59.3294H63.3518V59.0549C63.3518 58.5059 63.2166 58.0941 62.9464 57.7922C62.6761 57.4902 62.2707 57.3529 61.7301 57.3529Z" fill="#7F7E96"/>
<path d="M76.0277 61.3333L77.1088 54.9373H80.2981L77.7845 65.8078H74.9737L73.1898 59.3569L71.406 65.8078H68.5951L66.0815 54.9373H69.2708L70.3249 61.498L72.0276 54.9373H74.352L76.0277 61.3333Z" fill="#7F7E96"/>
<path d="M85.9199 62.7333C85.9199 62.4588 85.7848 62.2118 85.4875 62.0471C85.1902 61.8823 84.6226 61.6902 83.7847 61.498C82.9469 61.3059 82.2712 61.0588 81.7306 60.7569C81.1901 60.4549 80.7847 60.0706 80.4874 59.6314C80.2171 59.1921 80.0549 58.698 80.0549 58.1216C80.0549 57.1333 80.4603 56.3098 81.2712 55.651C82.082 54.9921 83.1361 54.6902 84.4604 54.6902C85.8659 54.6902 87.001 55.0196 87.8659 55.651C88.7308 56.3098 89.1633 57.1608 89.1633 58.2039H85.8118C85.8118 57.3255 85.3523 56.8863 84.4604 56.8863C84.1091 56.8863 83.8118 56.9961 83.5685 57.1882C83.3253 57.3804 83.2172 57.6274 83.2172 57.9294C83.2172 58.2314 83.3523 58.4784 83.6496 58.6706C83.9469 58.8627 84.4064 59 85.028 59.1372C85.6767 59.2471 86.2172 59.4118 86.7037 59.5765C88.3254 60.1255 89.1092 61.1412 89.1092 62.5961C89.1092 63.5843 88.6768 64.4078 87.8119 65.0118C86.947 65.6431 85.8388 65.9451 84.4604 65.9451C83.5415 65.9451 82.7307 65.7804 82.0009 65.451C81.2712 65.1216 80.7306 64.6549 80.3252 64.0784C79.9198 63.502 79.7306 62.898 79.7306 62.2667H82.8388C82.8658 62.7608 83.028 63.1451 83.3253 63.3647C83.6496 63.5843 84.055 63.6941 84.5415 63.6941C85.001 63.6941 85.3253 63.6118 85.5686 63.4196C85.8118 63.2823 85.9199 63.0353 85.9199 62.7333Z" fill="#7F7E96"/>
<path d="M48.5136 39.6746C48.865 39.2628 49.3785 39.0432 50.0271 39.0432C50.4055 39.0432 50.7839 39.0706 51.1083 39.153L51.1893 38.1373C50.811 38.0275 50.3785 37.9726 49.9461 37.9726C48.946 37.9726 48.1622 38.2746 47.6217 38.8785C47.0811 39.4824 46.7838 40.3334 46.7838 41.4314V42.7491H45V43.7648H46.7838V53.6471H47.973V43.7648H50.5136V42.7765H47.973V41.4314C47.946 40.6628 48.1352 40.0863 48.5136 39.6746Z" fill="#B4B4C0"/>
<path d="M58.0544 48.2941V47.6078C58.0544 46.0431 57.676 44.8078 56.9192 43.9294C56.1624 43.0235 55.1354 42.5843 53.8381 42.5843C53.0002 42.5843 52.2434 42.8314 51.5137 43.298C50.811 43.7647 50.2434 44.4235 49.838 45.2745C49.4325 46.098 49.2433 47.0588 49.2433 48.102V48.5412C49.2433 49.5569 49.4596 50.4628 49.865 51.2863C50.2704 52.1098 50.838 52.7412 51.5677 53.1804C52.2975 53.6471 53.1353 53.8667 54.0272 53.8667C55.6759 53.8667 56.9462 53.2353 57.8111 51.9451L57.0814 51.3686C56.676 51.8902 56.2435 52.2471 55.757 52.4941C55.2705 52.7137 54.73 52.8235 54.0813 52.8235C53.0272 52.8235 52.1623 52.4118 51.4596 51.5882C50.7569 50.7647 50.4326 49.749 50.4326 48.5137V48.2941H58.0544ZM51.5677 44.5882C52.1894 43.9294 52.9461 43.6 53.811 43.6C54.7029 43.6 55.4327 43.9294 56.0003 44.5882C56.5408 45.2471 56.8381 46.098 56.8922 47.1412V47.2784H50.4596C50.5947 46.1529 50.9731 45.2471 51.5677 44.5882Z" fill="#B4B4C0"/>
<path d="M67.5951 48.2941V47.6078C67.5951 46.0431 67.2168 44.8078 66.46 43.9294C65.7032 43.0235 64.6762 42.5843 63.3788 42.5843C62.541 42.5843 61.7842 42.8314 61.0544 43.298C60.3517 43.7647 59.7841 44.4235 59.3787 45.2745C58.9733 46.098 58.7841 47.0588 58.7841 48.102V48.5412C58.7841 49.5569 59.0003 50.4628 59.4058 51.2863C59.8112 52.1098 60.3788 52.7412 61.1085 53.1804C61.8382 53.6471 62.6761 53.8667 63.568 53.8667C65.2167 53.8667 66.487 53.2353 67.3519 51.9451L66.6221 51.3412C66.2167 51.8628 65.7843 52.2196 65.2978 52.4667C64.8113 52.7137 64.2707 52.8235 63.6221 52.8235C62.568 52.8235 61.7031 52.4118 61.0004 51.5882C60.2977 50.7647 59.9733 49.749 59.9733 48.5137V48.2941H67.5951ZM61.1085 44.5882C61.7301 43.9294 62.4869 43.6 63.3518 43.6C64.2437 43.6 64.9735 43.9294 65.541 44.5882C66.0816 45.2471 66.3789 46.098 66.433 47.1412V47.2784H60.0004C60.1355 46.1529 60.5139 45.2471 61.1085 44.5882Z" fill="#B4B4C0"/>
<path d="M75.6764 38.2196V44.3137C74.9197 43.1608 73.8115 42.5843 72.3791 42.5843C71.1088 42.5843 70.1087 43.0784 69.352 44.0941C68.6222 45.0823 68.2438 46.4274 68.2438 48.1294V48.2667C68.2438 49.9686 68.6222 51.3412 69.379 52.3569C70.1358 53.3725 71.1358 53.8667 72.3791 53.8667C73.8386 53.8667 74.9737 53.3176 75.7305 52.2196L75.7846 53.6745H76.8927V38.2196H75.6764ZM75.6764 50.8471C75.0548 52.1647 74.0278 52.7961 72.5683 52.7961C71.5682 52.7961 70.8115 52.3843 70.2439 51.5882C69.7033 50.7922 69.4331 49.6941 69.4331 48.2941C69.4331 46.7569 69.7033 45.5765 70.2709 44.7804C70.8115 43.9843 71.5953 43.5725 72.5953 43.5725C74.0278 43.5725 75.0548 44.2863 75.6764 45.6863V50.8471Z" fill="#B4B4C0"/>
<path d="M93.0552 43.7098C92.5687 42.9686 91.839 42.5843 90.866 42.5843C89.6498 42.5569 88.5416 43.1059 87.6227 44.2314C87.4875 43.7372 87.2173 43.3529 86.7848 43.051C86.3794 42.749 85.8389 42.6118 85.1902 42.5843C83.9739 42.5569 82.9199 43.051 82.055 44.0941L82.2712 42.7765H79.2441L75.9738 61.3333C75.9738 61.3333 76.5143 58.5882 78.136 56.3921C78.9468 55.2941 80.2982 55.0196 80.2982 55.0196L81.9739 46.0706C82.4604 45.4667 83.0009 45.1647 83.5685 45.1647C84.1902 45.1647 84.4875 45.5216 84.4875 46.2078L84.4604 46.8118L83.2983 53.647H86.5686L87.8659 46.0706C88.3524 45.4667 88.893 45.1647 89.4606 45.1647C90.0822 45.1921 90.3795 45.5216 90.3795 46.1804L90.3525 46.7843L89.2173 53.647H92.4877L93.5958 46.8118C93.7309 45.4667 93.5417 44.4235 93.0552 43.7098Z" fill="#F7F6FF"/>
<path d="M103.596 45.1921C103.299 44.3686 102.812 43.7372 102.164 43.298C101.515 42.8314 100.731 42.6118 99.8122 42.5843C98.2986 42.5569 97.0013 43.051 95.9742 44.0941C94.9202 45.1372 94.3255 46.5372 94.1364 48.3216L94.1093 48.5961C94.0282 49.5569 94.1904 50.4627 94.5688 51.2588C94.9472 52.0549 95.5148 52.6863 96.2715 53.1529C97.0283 53.5921 97.8662 53.8392 98.8392 53.8392H99.0284C99.8932 53.8392 100.677 53.647 101.38 53.3176C102.11 52.9882 102.677 52.5216 103.083 51.9451L101.704 50.1059C100.947 50.8745 100.109 51.2314 99.1635 51.2039C98.5959 51.1765 98.1365 50.9843 97.8391 50.6549C97.5418 50.298 97.3797 49.8314 97.3526 49.2549H103.731L103.92 47.8823C104.001 46.8941 103.893 45.9882 103.596 45.1921ZM100.839 46.8667L100.785 47.1686H97.5418C97.7851 46.4549 98.0824 45.9333 98.4338 45.6314C98.7851 45.3294 99.1905 45.1647 99.65 45.1921C100.38 45.2196 100.785 45.549 100.893 46.2353C100.866 46.4274 100.866 46.647 100.839 46.8667Z" fill="#F7F6FF"/>
</g>
<defs>
<clipPath id="clip0">
<rect width="58.9474" height="28" fill="white" transform="translate(45 38)"/>
</clipPath>
</defs>
</svg>
