<svg width="329" height="185" viewBox="0 0 329 185" fill="none" xmlns="http://www.w3.org/2000/svg">
<rect width="329" height="185" fill="#404051"/>
<g clip-path="url(#clip0)">
<path d="M131.838 99.4C130.912 98.2235 129.475 97.6588 127.576 97.6588C125.352 97.6588 123.591 98.5059 122.34 100.2L122.155 98.0353H116.78V116.671H122.479V103.494C123.035 102.6 123.869 102.129 124.981 102.129C125.954 102.129 126.649 102.365 127.02 102.788C127.39 103.212 127.576 103.918 127.576 104.859V116.624H133.321V104.671C133.275 102.318 132.811 100.576 131.838 99.4Z" fill="#7F7E96"/>
<path d="M143.329 117C140.503 117 138.232 116.153 136.518 114.459C134.757 112.765 133.923 110.506 133.923 107.776V107.306C133.923 105.424 134.248 103.729 134.943 102.271C135.638 100.812 136.657 99.6824 138.001 98.8824C139.344 98.0824 140.92 97.6588 142.727 97.6588C145.321 97.6588 147.36 98.4588 148.843 100.106C150.325 101.706 151.067 103.965 151.067 106.882V109.141H139.715C139.9 110.176 140.364 111.024 141.059 111.588C141.754 112.2 142.634 112.482 143.746 112.482C145.553 112.482 146.989 111.824 147.962 110.553L150.603 113.706C149.908 114.694 148.889 115.494 147.545 116.106C146.248 116.718 144.858 117 143.329 117ZM142.68 102.176C141.012 102.176 139.993 103.306 139.715 105.565H145.46V105.094C145.46 104.153 145.229 103.447 144.765 102.929C144.302 102.412 143.607 102.176 142.68 102.176Z" fill="#7F7E96"/>
<path d="M167.191 109L169.044 98.0353H174.511L170.202 116.671H165.384L162.326 105.612L159.268 116.671H154.449L150.14 98.0353H155.607L157.414 109.282L160.333 98.0353H164.318L167.191 109Z" fill="#7F7E96"/>
<path d="M184.148 111.4C184.148 110.929 183.917 110.506 183.407 110.224C182.897 109.941 181.924 109.612 180.488 109.282C179.052 108.953 177.893 108.529 176.967 108.012C176.04 107.494 175.345 106.835 174.835 106.082C174.372 105.329 174.094 104.482 174.094 103.494C174.094 101.8 174.789 100.388 176.179 99.2588C177.569 98.1294 179.376 97.6118 181.646 97.6118C184.056 97.6118 186.002 98.1765 187.484 99.2588C188.967 100.388 189.708 101.847 189.708 103.635H183.963C183.963 102.129 183.175 101.376 181.646 101.376C181.044 101.376 180.534 101.565 180.117 101.894C179.7 102.224 179.515 102.647 179.515 103.165C179.515 103.682 179.747 104.106 180.256 104.435C180.766 104.765 181.554 105 182.619 105.235C183.731 105.424 184.658 105.706 185.492 105.988C188.272 106.929 189.616 108.671 189.616 111.165C189.616 112.859 188.874 114.271 187.392 115.306C185.909 116.388 184.009 116.906 181.646 116.906C180.071 116.906 178.681 116.624 177.43 116.059C176.179 115.494 175.252 114.694 174.557 113.706C173.862 112.718 173.538 111.682 173.538 110.6H178.866C178.913 111.447 179.191 112.106 179.7 112.482C180.256 112.859 180.951 113.047 181.785 113.047C182.573 113.047 183.129 112.906 183.546 112.576C183.963 112.341 184.148 111.918 184.148 111.4Z" fill="#7F7E96"/>
<path d="M120.023 71.8707C120.626 71.1648 121.506 70.7883 122.618 70.7883C123.267 70.7883 123.915 70.8354 124.471 70.9766L124.61 69.2354C123.962 69.0472 123.22 68.9531 122.479 68.9531C120.765 68.9531 119.421 69.4707 118.494 70.506C117.568 71.5413 117.058 73.0001 117.058 74.8825V77.1413H114V78.8825H117.058V95.8236H119.097V78.8825H123.452V77.1883H119.097V74.8825C119.05 73.5648 119.375 72.5766 120.023 71.8707Z" fill="#B4B4C0"/>
<path d="M136.379 86.6471V85.4706C136.379 82.7882 135.73 80.6706 134.433 79.1647C133.136 77.6118 131.375 76.8588 129.151 76.8588C127.715 76.8588 126.417 77.2824 125.166 78.0824C123.962 78.8824 122.989 80.0118 122.294 81.4706C121.599 82.8824 121.274 84.5294 121.274 86.3177V87.0706C121.274 88.8118 121.645 90.3647 122.34 91.7765C123.035 93.1882 124.008 94.2706 125.259 95.0235C126.51 95.8235 127.946 96.2 129.475 96.2C132.302 96.2 134.479 95.1177 135.962 92.9059L134.711 91.9177C134.016 92.8118 133.275 93.4235 132.441 93.8471C131.607 94.2235 130.68 94.4118 129.568 94.4118C127.761 94.4118 126.278 93.7059 125.074 92.2941C123.869 90.8824 123.313 89.1412 123.313 87.0235V86.6471H136.379ZM125.259 80.2941C126.325 79.1647 127.622 78.6 129.105 78.6C130.634 78.6 131.885 79.1647 132.858 80.2941C133.784 81.4235 134.294 82.8824 134.387 84.6706V84.9059H123.359C123.591 82.9765 124.24 81.4235 125.259 80.2941Z" fill="#B4B4C0"/>
<path d="M152.735 86.6471V85.4706C152.735 82.7882 152.086 80.6706 150.789 79.1647C149.491 77.6118 147.731 76.8588 145.507 76.8588C144.07 76.8588 142.773 77.2824 141.522 78.0824C140.317 78.8824 139.344 80.0118 138.649 81.4706C137.954 82.8824 137.63 84.5294 137.63 86.3177V87.0706C137.63 88.8118 138.001 90.3647 138.696 91.7765C139.391 93.1882 140.364 94.2706 141.615 95.0235C142.866 95.8235 144.302 96.2 145.831 96.2C148.657 96.2 150.835 95.1177 152.318 92.9059L151.067 91.8706C150.372 92.7647 149.63 93.3765 148.796 93.8C147.962 94.2235 147.036 94.4118 145.924 94.4118C144.117 94.4118 142.634 93.7059 141.429 92.2941C140.225 90.8824 139.669 89.1412 139.669 87.0235V86.6471H152.735ZM141.615 80.2941C142.68 79.1647 143.978 78.6 145.46 78.6C146.989 78.6 148.24 79.1647 149.213 80.2941C150.14 81.4235 150.65 82.8824 150.742 84.6706V84.9059H139.715C139.947 82.9765 140.595 81.4235 141.615 80.2941Z" fill="#B4B4C0"/>
<path d="M166.588 69.3765V79.8235C165.291 77.8471 163.391 76.8588 160.935 76.8588C158.758 76.8588 157.043 77.7059 155.746 79.4471C154.495 81.1412 153.846 83.4471 153.846 86.3647V86.6C153.846 89.5176 154.495 91.8706 155.792 93.6118C157.09 95.3529 158.804 96.2 160.935 96.2C163.437 96.2 165.383 95.2588 166.681 93.3765L166.773 95.8706H168.673V69.3765H166.588ZM166.588 91.0235C165.522 93.2823 163.762 94.3647 161.26 94.3647C159.545 94.3647 158.248 93.6588 157.275 92.2941C156.348 90.9294 155.885 89.0471 155.885 86.6471C155.885 84.0118 156.348 81.9882 157.321 80.6235C158.248 79.2588 159.592 78.5529 161.306 78.5529C163.762 78.5529 165.522 79.7765 166.588 82.1765V91.0235Z" fill="#B4B4C0"/>
<path d="M196.38 78.7882C195.546 77.5176 194.295 76.8588 192.627 76.8588C190.542 76.8118 188.643 77.7529 187.067 79.6824C186.836 78.8353 186.372 78.1765 185.631 77.6588C184.936 77.1412 184.009 76.9059 182.897 76.8588C180.812 76.8118 179.005 77.6588 177.523 79.4471L177.893 77.1882H172.704L167.098 109C167.098 109 168.025 104.294 170.804 100.529C172.194 98.6471 174.511 98.1765 174.511 98.1765L177.384 82.8353C178.218 81.8 179.144 81.2824 180.117 81.2824C181.183 81.2824 181.693 81.8941 181.693 83.0706L181.646 84.1059L179.654 95.8235H185.26L187.484 82.8353C188.318 81.8 189.245 81.2824 190.218 81.2824C191.284 81.3294 191.793 81.8941 191.793 83.0235L191.747 84.0588L189.801 95.8235H195.407L197.307 84.1059C197.539 81.8 197.214 80.0118 196.38 78.7882Z" fill="#F7F6FF"/>
<path d="M214.45 81.3294C213.941 79.9176 213.107 78.8353 211.995 78.0823C210.883 77.2823 209.539 76.9059 207.964 76.8588C205.369 76.8118 203.145 77.6588 201.384 79.4471C199.577 81.2353 198.558 83.6353 198.234 86.6941L198.187 87.1647C198.048 88.8118 198.326 90.3647 198.975 91.7294C199.624 93.0941 200.597 94.1765 201.894 94.9765C203.191 95.7294 204.628 96.1529 206.296 96.1529H206.62C208.103 96.1529 209.446 95.8235 210.651 95.2588C211.902 94.6941 212.875 93.8941 213.57 92.9059L211.207 89.7529C209.91 91.0706 208.473 91.6823 206.852 91.6353C205.879 91.5882 205.091 91.2588 204.581 90.6941C204.072 90.0823 203.794 89.2823 203.747 88.2941H214.682L215.006 85.9412C215.145 84.2471 214.96 82.6941 214.45 81.3294ZM209.724 84.2L209.632 84.7176H204.072C204.489 83.4941 204.998 82.6 205.601 82.0823C206.203 81.5647 206.898 81.2823 207.686 81.3294C208.937 81.3765 209.632 81.9412 209.817 83.1176C209.771 83.4471 209.771 83.8235 209.724 84.2Z" fill="#F7F6FF"/>
</g>
<defs>
<clipPath id="clip0">
<rect width="101.053" height="48" fill="white" transform="translate(114 69)"/>
</clipPath>
</defs>
</svg>
