<svg width="80" height="38" viewBox="0 0 80 38" fill="none" xmlns="http://www.w3.org/2000/svg">
<g clip-path="url(#clip0)">
<path d="M14.122 24.0667C13.3884 23.1353 12.2513 22.6882 10.7474 22.6882C8.98671 22.6882 7.59286 23.3588 6.60249 24.7L6.45577 22.9863H2.20084V37.7392H6.71253V27.3078C7.15269 26.6 7.81294 26.2274 8.69327 26.2274C9.46356 26.2274 10.0138 26.4137 10.3072 26.749C10.6007 27.0843 10.7474 27.6431 10.7474 28.3882V37.702H15.2957V28.2392C15.2591 26.3765 14.8923 24.998 14.122 24.0667Z" fill="#7F7E96"/>
<path d="M23.2187 38C20.9812 38 19.1839 37.3294 17.8267 35.9882C16.4328 34.6471 15.7726 32.8588 15.7726 30.698V30.3255C15.7726 28.8353 16.0293 27.4941 16.5796 26.3392C17.1298 25.1843 17.9367 24.2902 19.0005 23.6569C20.0642 23.0235 21.3113 22.6882 22.7419 22.6882C24.796 22.6882 26.4099 23.3216 27.5837 24.6255C28.7574 25.8922 29.3443 27.6804 29.3443 29.9902V31.7784H20.3576C20.5044 32.598 20.8712 33.2686 21.4214 33.7157C21.9716 34.2 22.6685 34.4235 23.5488 34.4235C24.9794 34.4235 26.1165 33.902 26.8868 32.8961L28.9775 35.3922C28.4273 36.1745 27.6204 36.8078 26.5566 37.2922C25.5296 37.7765 24.4292 38 23.2187 38ZM22.7052 26.2647C21.3847 26.2647 20.5777 27.1588 20.3576 28.9471H24.906V28.5745C24.906 27.8294 24.7226 27.2706 24.3558 26.8608C23.989 26.451 23.4388 26.2647 22.7052 26.2647Z" fill="#7F7E96"/>
<path d="M42.1091 31.6667L43.5763 22.9863H47.9046L44.4933 37.7392H40.6786L38.2577 28.9843L35.8368 37.7392H32.022L28.6107 22.9863H32.939L34.3695 31.8902L36.6804 22.9863H39.8349L42.1091 31.6667Z" fill="#7F7E96"/>
<path d="M55.5341 33.5667C55.5341 33.1941 55.3508 32.8588 54.9473 32.6353C54.5438 32.4118 53.7735 32.151 52.6364 31.8902C51.4993 31.6294 50.5823 31.2941 49.8487 30.8843C49.1151 30.4745 48.5649 29.9529 48.1614 29.3569C47.7946 28.7608 47.5745 28.0902 47.5745 27.3078C47.5745 25.9667 48.1247 24.849 49.2251 23.9549C50.3255 23.0608 51.7561 22.651 53.5534 22.651C55.4608 22.651 57.0014 23.098 58.1751 23.9549C59.3489 24.849 59.9358 26.0039 59.9358 27.4196H55.3874C55.3874 26.2274 54.7639 25.6314 53.5534 25.6314C53.0766 25.6314 52.6731 25.7804 52.343 26.0412C52.0128 26.302 51.8661 26.6372 51.8661 27.047C51.8661 27.4569 52.0495 27.7921 52.453 28.0529C52.8565 28.3137 53.4801 28.5 54.3237 28.6863C55.204 28.8353 55.9376 29.0588 56.5979 29.2823C58.7987 30.0274 59.8624 31.4059 59.8624 33.3804C59.8624 34.7216 59.2756 35.8392 58.1018 36.6588C56.928 37.5157 55.4241 37.9255 53.5534 37.9255C52.3063 37.9255 51.2059 37.702 50.2155 37.2549C49.2251 36.8078 48.4915 36.1745 47.9413 35.3921C47.3911 34.6098 47.1343 33.7902 47.1343 32.9333H51.3526C51.3893 33.6039 51.6093 34.1255 52.0128 34.4235C52.453 34.7216 53.0032 34.8706 53.6635 34.8706C54.287 34.8706 54.7272 34.7588 55.0573 34.498C55.3874 34.3118 55.5341 33.9765 55.5341 33.5667Z" fill="#7F7E96"/>
<path d="M4.76845 2.27263C5.2453 1.71381 5.94223 1.41577 6.82256 1.41577C7.33608 1.41577 7.84961 1.45303 8.28978 1.56479L8.39982 0.186359C7.88629 0.0373394 7.2994 -0.0371704 6.71252 -0.0371704C5.35534 -0.0371704 4.29161 0.372633 3.558 1.19224C2.82439 2.01185 2.42091 3.16675 2.42091 4.65695V6.44518H0V7.82361H2.42091V21.2354H4.03485V7.82361H7.48281V6.48244H4.03485V4.65695C3.99817 3.61381 4.25493 2.83146 4.76845 2.27263Z" fill="#B4B4C0"/>
<path d="M17.7166 13.9706V13.0392C17.7166 10.9157 17.2031 9.2392 16.1761 8.04705C15.149 6.81764 13.7552 6.22156 11.9945 6.22156C10.8574 6.22156 9.83035 6.55685 8.83997 7.19018C7.88628 7.82352 7.11599 8.71764 6.56579 9.87254C6.01558 10.9902 5.75882 12.2941 5.75882 13.7098V14.3059C5.75882 15.6843 6.05226 16.9137 6.60247 18.0314C7.15268 19.149 7.92296 20.0059 8.91334 20.602C9.90371 21.2353 11.0408 21.5333 12.2513 21.5333C14.4888 21.5333 16.2127 20.6765 17.3865 18.9255L16.3961 18.1431C15.8459 18.851 15.259 19.3353 14.5988 19.6706C13.9386 19.9686 13.2049 20.1176 12.3246 20.1176C10.8941 20.1176 9.7203 19.5588 8.76661 18.4412C7.81292 17.3235 7.37276 15.9451 7.37276 14.2686V13.9706H17.7166ZM8.91334 8.94117C9.75698 8.04705 10.784 7.59999 11.9578 7.59999C13.1683 7.59999 14.1586 8.04705 14.9289 8.94117C15.6625 9.83528 16.066 10.9902 16.1394 12.4059V12.5921H7.40944C7.59284 11.0647 8.10637 9.83528 8.91334 8.94117Z" fill="#B4B4C0"/>
<path d="M30.6648 13.9706V13.0392C30.6648 10.9157 30.1513 9.2392 29.1242 8.04705C28.0972 6.81764 26.7033 6.22156 24.9427 6.22156C23.8056 6.22156 22.7785 6.55685 21.7882 7.19018C20.8345 7.82352 20.0642 8.71764 19.514 9.87254C18.9638 10.9902 18.707 12.2941 18.707 13.7098V14.3059C18.707 15.6843 19.0004 16.9137 19.5507 18.0314C20.1009 19.149 20.8711 20.0059 21.8615 20.602C22.8519 21.2353 23.989 21.5333 25.1994 21.5333C27.4369 21.5333 29.1609 20.6765 30.3347 18.9255L29.3443 18.1059C28.7941 18.8137 28.2072 19.298 27.547 19.6333C26.8867 19.9686 26.1531 20.1176 25.2728 20.1176C23.8423 20.1176 22.6685 19.5588 21.7148 18.4412C20.7611 17.3235 20.3209 15.9451 20.3209 14.2686V13.9706H30.6648ZM21.8615 8.94117C22.7052 8.04705 23.7322 7.59999 24.906 7.59999C26.1164 7.59999 27.1068 8.04705 27.8771 8.94117C28.6107 9.83528 29.0142 10.9902 29.0876 12.4059V12.5921H20.3576C20.541 11.0647 21.0545 9.83528 21.8615 8.94117Z" fill="#B4B4C0"/>
<path d="M41.6323 0.298035V8.56862C40.6052 7.00392 39.1013 6.22156 37.1573 6.22156C35.4333 6.22156 34.0761 6.89215 33.0491 8.27058C32.0587 9.61176 31.5452 11.4373 31.5452 13.7471V13.9333C31.5452 16.2431 32.0587 18.1059 33.0857 19.4843C34.1128 20.8627 35.47 21.5333 37.1573 21.5333C39.138 21.5333 40.6786 20.7882 41.7056 19.298L41.779 21.2725H43.2829V0.298035H41.6323ZM41.6323 17.4353C40.7886 19.2235 39.3948 20.0804 37.414 20.0804C36.0569 20.0804 35.0298 19.5216 34.2595 18.4412C33.5259 17.3608 33.1591 15.8706 33.1591 13.9706C33.1591 11.8843 33.5259 10.2823 34.2962 9.20196C35.0298 8.12156 36.0935 7.56274 37.4507 7.56274C39.3948 7.56274 40.7886 8.53137 41.6323 10.4314V17.4353Z" fill="#B4B4C0"/>
<path d="M65.2178 7.74901C64.5575 6.74313 63.5672 6.22156 62.2467 6.22156C60.5961 6.18431 59.0922 6.92941 57.845 8.45686C57.6616 7.78627 57.2948 7.2647 56.7079 6.8549C56.1577 6.44509 55.4241 6.25882 54.5438 6.22156C52.8932 6.18431 51.4626 6.8549 50.2889 8.27058L50.5823 6.48235H46.4741L42.0358 31.6667C42.0358 31.6667 42.7694 27.9412 44.9702 24.9608C46.0706 23.4706 47.9046 23.098 47.9046 23.098L50.1788 10.9529C50.8391 10.1333 51.5727 9.72352 52.343 9.72352C53.1866 9.72352 53.5901 10.2078 53.5901 11.1392L53.5534 11.9588L51.9762 21.2353H56.4145L58.1751 10.9529C58.8354 10.1333 59.569 9.72352 60.3393 9.72352C61.1829 9.76078 61.5864 10.2078 61.5864 11.102L61.5497 11.9216L60.0092 21.2353H64.4475L65.9514 11.9588C66.1348 10.1333 65.878 8.71764 65.2178 7.74901Z" fill="#F7F6FF"/>
<path d="M79.5232 9.76078C79.1197 8.64313 78.4594 7.78627 77.5791 7.19019C76.6988 6.55686 75.6351 6.25882 74.3879 6.22156C72.3338 6.18431 70.5732 6.8549 69.1793 8.27058C67.7488 9.68627 66.9418 11.5863 66.685 14.0078L66.6483 14.3804C66.5383 15.6843 66.7584 16.9137 67.2719 17.9941C67.7854 19.0745 68.5557 19.9314 69.5828 20.5647C70.6098 21.1608 71.7469 21.4961 73.0674 21.4961H73.3242C74.498 21.4961 75.5617 21.2353 76.5154 20.7882C77.5058 20.3412 78.276 19.7078 78.8262 18.9255L76.9555 16.4294C75.9285 17.4725 74.7914 17.9569 73.5076 17.9196C72.7373 17.8823 72.1137 17.6216 71.7102 17.1745C71.3068 16.6902 71.0867 16.0569 71.05 15.2745H79.7066L79.9633 13.4118C80.0734 12.0706 79.9267 10.8412 79.5232 9.76078ZM75.7818 12.0333L75.7084 12.4431H71.3068C71.6369 11.4745 72.0404 10.7667 72.5172 10.3569C72.9941 9.94705 73.5443 9.72352 74.1678 9.76078C75.1582 9.79803 75.7084 10.2451 75.8551 11.1765C75.8185 11.4372 75.8185 11.7353 75.7818 12.0333Z" fill="#F7F6FF"/>
</g>
<defs>
<clipPath id="clip0">
<rect width="80" height="38" fill="white"/>
</clipPath>
</defs>
</svg>
